<svg xmlns="http://www.w3.org/2000/svg" viewBox="0 0 1200 900" role="img" aria-label="AI neural network visualization">
  <defs>
    <linearGradient id="bg" x1="0" x2="1" y1="0" y2="1">
      <stop offset="0%" stop-color="#0b1320"/>
      <stop offset="100%" stop-color="#1c2b3c"/>
    </linearGradient>
    <linearGradient id="glow" x1="0" x2="1">
      <stop offset="0%" stop-color="#7df4ff"/>
      <stop offset="50%" stop-color="#00dbe9"/>
      <stop offset="100%" stop-color="#6366f1"/>
    </linearGradient>
  </defs>
  <rect width="1200" height="900" rx="24" fill="url(#bg)"/>
  <g opacity="0.7" stroke="url(#glow)" stroke-linecap="round">
    <path d="M240 560 420 420 680 510 870 300" stroke-width="2"/>
    <path d="M280 470 520 340 760 430 930 220" stroke-width="1.5"/>
    <path d="M300 620 500 500 720 590 980 420" stroke-width="1.5"/>
    <path d="M220 360 430 300 620 380 860 240" stroke-width="1.5"/>
  </g>
  <g fill="#7df4ff" opacity="0.95">
    <circle cx="240" cy="560" r="12"/>
    <circle cx="420" cy="420" r="12"/>
    <circle cx="680" cy="510" r="12"/>
    <circle cx="870" cy="300" r="12"/>
    <circle cx="280" cy="470" r="10"/>
    <circle cx="520" cy="340" r="10"/>
    <circle cx="760" cy="430" r="10"/>
    <circle cx="930" cy="220" r="10"/>
    <circle cx="300" cy="620" r="10"/>
    <circle cx="500" cy="500" r="10"/>
    <circle cx="720" cy="590" r="10"/>
    <circle cx="980" cy="420" r="10"/>
  </g>
</svg>
