<svg width="512" height="512" viewBox="0 0 512 512" fill="none" xmlns="http://www.w3.org/2000/svg" role="img" aria-labelledby="title desc">
  <title id="title">Portrait placeholder</title>
  <desc id="desc">A neutral grayscale portrait illustration used on the About page.</desc>
  <rect width="512" height="512" rx="36" fill="#E6EAEE"/>
  <circle cx="256" cy="198" r="84" fill="#9CA3AF"/>
  <path d="M128 428C146 348 204 304 256 304C308 304 366 348 384 428H128Z" fill="#6B7280"/>
  <path d="M188 180C188 136 218 110 256 110C294 110 324 136 324 180C324 210 317 236 307 256C296 277 279 292 256 292C233 292 216 277 205 256C195 236 188 210 188 180Z" fill="#F3F4F6"/>
  <ellipse cx="226" cy="188" rx="11" ry="16" fill="#374151"/>
  <ellipse cx="286" cy="188" rx="11" ry="16" fill="#374151"/>
  <path d="M226 230C240 240 272 240 286 230" stroke="#374151" stroke-width="10" stroke-linecap="round"/>
</svg>
